<svg aria-hidden="true" style="position:absolute;width:0;height:0;overflow:hidden" xmlns="http://www.w3.org/2000/svg">
  <defs>
    <symbol id="logo" viewBox="0 0 107 32">
      <path fill="#ff6b0a" style="fill:var(--color1, #ff6b0a)" d="M106.667 0v32H59.536V0h47.131zM74.42 8.811v13.927l.001.044a.842.842 0 0 1-.001.087c-.007.08.015.128.107.115a.485.485 0 0 1 .066-.001l.033.001h3.582c.075.001.112.001.129-.017s.016-.051.014-.116l-.001-.078V8.83l-.001-.033a.485.485 0 0 1 .001-.066c.008-.082-.02-.125-.109-.115-.018.002-.036.001-.054.001l-.028-.001h-3.55l-.062-.001c-.065-.001-.098-.001-.114.015s-.016.049-.015.116l.001.064zm19.579-.194h-5.863c-1.954 0-3.908 0-5.86-.002h-.133c-.066-.003-.089.028-.084.089a.486.486 0 0 1 0 .054v3.398c0 .072-.001.107.017.124s.051.017.118.016H85.923c.12 0 .18 0 .209.03s.029.087.029.2v10.335c-.001.059-.001.09.014.106.017.018.052.017.127.017h3.571c.111 0 .166 0 .193-.028s.027-.08.027-.186V12.488l-.001-.059c-.001-.063-.001-.097.015-.114.018-.019.055-.018.133-.018h3.798c.162 0 .162 0 .164-.159V8.759c.001-.072.001-.108-.016-.126s-.053-.017-.123-.016L94 8.618z"/>
      <path fill="#010101" style="fill:var(--color2, #010101)" d="m47.132 0 12.403 16-12.403 16H0V0h47.132zm-26.38 13.662.215.174a.371.371 0 0 0 .106-.107.256.256 0 0 1 .02-.026c.254-.302.507-.606.76-.91.507-.606 1.012-1.212 1.518-1.82.101-.122.097-.177-.018-.276a12.617 12.617 0 0 0-.277-.233c-.803-.657-1.685-1.17-2.684-1.467a9.43 9.43 0 0 0-2.043-.353c-.905-.061-1.802-.031-2.691.174-3.112.716-5.434 3.292-5.707 6.594a7.795 7.795 0 0 0 .225 2.638c.519 1.96 1.645 3.461 3.434 4.45.975.539 2.03.823 3.14.912.94.076 1.87.018 2.788-.189 1.553-.35 2.925-1.056 4.146-2.067a.333.333 0 0 0 .137-.289c-.004-1.572-.004-3.145-.003-4.717v-1.179a.66.66 0 0 0-.003-.062c-.003-.046-.006-.092.006-.134.015-.049-.012-.077-.037-.104-.021-.022-.042-.044-.039-.077.007-.054-.03-.062-.073-.062h-6.556l-.038.001c-.026.001-.052.002-.077-.001-.066-.007-.087.026-.083.087a.657.657 0 0 1 .001.077l-.001.038V17.839l-.001.074c-.001.063-.002.096.014.112s.052.017.125.016H19.772c.072-.001.107-.001.124.016.016.016.015.048.014.11l-.001.078v.679c0 .308 0 .311-.279.445-.818.391-1.681.503-2.573.391-.991-.123-1.784-.591-2.365-1.401-.378-.527-.585-1.122-.662-1.763-.097-.818.002-1.605.373-2.348.448-.892 1.125-1.533 2.098-1.827.682-.207 1.373-.153 2.056-.003.619.135 1.159.437 1.657.816.182.138.359.281.539.427zm18.346-2.98c-1.528-1.39-3.348-2.052-5.229-2.066-.869.002-1.518.072-2.207.251-1.998.521-3.563 1.638-4.602 3.422-1.067 1.83-1.283 3.793-.687 5.812.667 2.257 2.089 3.9 4.29 4.815 1.69.701 3.44.795 5.206.332 2.051-.537 3.624-1.725 4.654-3.578.869-1.562 1.102-3.238.778-4.987-.291-1.572-1.017-2.919-2.203-4zm-8.437 3.528c.666-1.227 1.729-1.815 2.762-1.838 2.094-.005 3.464 1.173 3.837 2.806.226.984.125 1.94-.358 2.834-.57 1.05-1.458 1.661-2.654 1.797-1.156.133-2.165-.194-2.99-1.025a3.579 3.579 0 0 1-.983-1.914c-.172-.928-.066-1.827.386-2.66z"/>
    </symbol>
    <symbol id="javascript" viewBox="0 0 32 32">
      <path fill="#f7df1e" style="fill:var(--color3, #f7df1e)" d="M0 0h32v32H0V0z"/>
      <path style="fill:var(--color4, #000)" d="m8.414 26.741 2.449-1.482c.473.838.902 1.546 1.933 1.546.988 0 1.611-.387 1.611-1.89V14.69h3.007v10.267c0 3.115-1.826 4.532-4.489 4.532-2.406 0-3.802-1.246-4.511-2.75zm10.634-.322 2.448-1.418c.645 1.053 1.482 1.826 2.964 1.826 1.246 0 2.041-.623 2.041-1.482 0-1.031-.816-1.396-2.191-1.997l-.752-.323c-2.17-.923-3.609-2.083-3.609-4.532 0-2.256 1.718-3.974 4.404-3.974 1.912 0 3.287.666 4.274 2.406l-2.341 1.504c-.516-.924-1.074-1.289-1.933-1.289-.881 0-1.439.558-1.439 1.289 0 .902.558 1.268 1.847 1.826l.752.322c2.556 1.096 3.995 2.212 3.995 4.726 0 2.707-2.127 4.189-4.983 4.189-2.792 0-4.597-1.332-5.477-3.072z"/>
    </symbol>
    <symbol id="icon-Frame-29" viewBox="0 0 157 32">
      <path fill="#ef4040" style="fill: var(--color1, #ef4040)" d="M0 1.455c0-0.803 0.651-1.455 1.455-1.455h154.182c0.803 0 1.455 0.651 1.455 1.455v29.091c0 0.803-0.651 1.455-1.455 1.455h-154.182c-0.803 0-1.455-0.651-1.455-1.455v-29.091z"></path>
      <path fill="#ffbebe" style="fill: var(--color2, #ffbebe)" d="M0 0v0zM157.091 30.545c0 1.205-0.977 2.182-2.182 2.182h-152.727c-1.205 0-2.182-0.977-2.182-2.182 0 0.402 0.651 0.727 1.455 0.727h154.182c0.803 0 1.455-0.326 1.455-0.727zM0 32v0zM157.091 0v0z"></path>
      <path fill="#fafafb" style="fill: var(--color3, #fafafb)" d="M9.749 11.716c0.051-0.051 0.12-0.080 0.193-0.080h3.389c0.072 0 0.141 0.029 0.193 0.080l2.397 2.397c0.051 0.051 0.080 0.12 0.080 0.193v3.389c0 0.072-0.029 0.141-0.080 0.193l-2.397 2.397c-0.051 0.051-0.12 0.080-0.193 0.080h-3.389c-0.072 0-0.141-0.029-0.193-0.080l-2.397-2.397c-0.051-0.051-0.080-0.12-0.080-0.193v-3.389c0-0.072 0.029-0.141 0.080-0.193l2.397-2.397zM10.055 12.182l-2.236 2.236v3.164l2.236 2.236h3.164l2.236-2.236v-3.164l-2.236-2.236h-3.164z"></path>
      <path fill="#fafafb" style="fill: var(--color3, #fafafb)" d="M9.807 14.171c0.025-0.025 0.055-0.046 0.089-0.059s0.069-0.021 0.105-0.021c0.036 0 0.071 0.007 0.104 0.021s0.063 0.034 0.089 0.059l1.443 1.444 1.443-1.444c0.025-0.025 0.055-0.045 0.089-0.059s0.069-0.021 0.104-0.021 0.071 0.007 0.104 0.021c0.033 0.014 0.063 0.034 0.089 0.059s0.045 0.055 0.059 0.089c0.014 0.033 0.021 0.069 0.021 0.104s-0.007 0.071-0.021 0.104c-0.014 0.033-0.034 0.063-0.059 0.089l-1.444 1.443 1.444 1.443c0.025 0.025 0.045 0.055 0.059 0.089s0.021 0.069 0.021 0.105-0.007 0.071-0.021 0.105c-0.014 0.033-0.034 0.063-0.059 0.089s-0.055 0.045-0.089 0.059c-0.033 0.014-0.069 0.021-0.104 0.021s-0.071-0.007-0.104-0.021c-0.033-0.014-0.063-0.034-0.089-0.059l-1.443-1.444-1.443 1.444c-0.025 0.025-0.055 0.045-0.089 0.059s-0.069 0.021-0.104 0.021-0.071-0.007-0.104-0.021c-0.033-0.014-0.063-0.034-0.089-0.059s-0.045-0.055-0.059-0.089c-0.014-0.033-0.021-0.069-0.021-0.105s0.007-0.071 0.021-0.105c0.014-0.033 0.034-0.063 0.059-0.089l1.444-1.443-1.444-1.443c-0.025-0.025-0.046-0.055-0.059-0.089s-0.021-0.069-0.021-0.105c0-0.036 0.007-0.071 0.021-0.104s0.034-0.063 0.059-0.089z"></path>
      <path fill="#fafafb" style="fill: var(--color3, #fafafb)" d="M20.695 13.853c-0.303 0-0.593-0.048-0.873-0.145-0.275-0.101-0.489-0.229-0.64-0.384l0.169-0.332c0.144 0.14 0.336 0.258 0.576 0.355 0.244 0.093 0.5 0.14 0.768 0.14 0.256 0 0.464-0.031 0.623-0.093 0.163-0.066 0.281-0.153 0.355-0.262 0.078-0.109 0.116-0.229 0.116-0.361 0-0.159-0.047-0.287-0.14-0.384-0.089-0.097-0.208-0.173-0.355-0.227-0.147-0.058-0.31-0.109-0.489-0.151s-0.357-0.087-0.535-0.134c-0.178-0.050-0.343-0.116-0.495-0.198-0.147-0.081-0.268-0.188-0.361-0.32-0.089-0.136-0.134-0.312-0.134-0.529 0-0.202 0.052-0.386 0.157-0.553 0.109-0.171 0.273-0.306 0.495-0.407 0.221-0.105 0.504-0.157 0.849-0.157 0.229 0 0.456 0.033 0.681 0.099 0.225 0.062 0.419 0.149 0.582 0.262l-0.145 0.343c-0.175-0.116-0.361-0.202-0.559-0.256-0.194-0.054-0.382-0.081-0.564-0.081-0.244 0-0.446 0.033-0.605 0.099s-0.277 0.155-0.355 0.268c-0.074 0.109-0.111 0.233-0.111 0.372 0 0.159 0.045 0.287 0.134 0.384 0.093 0.097 0.213 0.173 0.361 0.227 0.151 0.054 0.316 0.103 0.495 0.145s0.355 0.089 0.529 0.14c0.178 0.050 0.341 0.116 0.489 0.198 0.151 0.078 0.272 0.182 0.361 0.314 0.093 0.132 0.14 0.304 0.14 0.518 0 0.198-0.054 0.382-0.163 0.553-0.109 0.167-0.275 0.303-0.5 0.407-0.221 0.101-0.506 0.151-0.855 0.151zM24.492 13.847c-0.295 0-0.561-0.066-0.797-0.198-0.233-0.136-0.417-0.32-0.553-0.553-0.136-0.237-0.204-0.506-0.204-0.809 0-0.306 0.068-0.576 0.204-0.809s0.32-0.415 0.553-0.547 0.498-0.198 0.797-0.198c0.303 0 0.57 0.066 0.803 0.198 0.237 0.132 0.421 0.314 0.553 0.547 0.136 0.233 0.204 0.502 0.204 0.809 0 0.303-0.068 0.572-0.204 0.809-0.132 0.233-0.316 0.417-0.553 0.553-0.237 0.132-0.504 0.198-0.803 0.198zM24.492 13.481c0.221 0 0.417-0.048 0.588-0.145 0.171-0.101 0.304-0.24 0.401-0.419 0.101-0.182 0.151-0.392 0.151-0.628 0-0.24-0.050-0.45-0.151-0.628-0.097-0.178-0.231-0.316-0.401-0.413-0.171-0.101-0.365-0.151-0.582-0.151s-0.411 0.050-0.582 0.151c-0.171 0.097-0.306 0.235-0.407 0.413s-0.151 0.388-0.151 0.628c0 0.237 0.050 0.446 0.151 0.628 0.101 0.178 0.237 0.318 0.407 0.419 0.171 0.097 0.363 0.145 0.576 0.145zM27.076 13.818v-3.055h0.396v0.832l-0.041-0.145c0.085-0.233 0.229-0.409 0.431-0.529 0.202-0.124 0.452-0.186 0.751-0.186v0.401c-0.016 0-0.031 0-0.047 0-0.016-0.004-0.031-0.006-0.047-0.006-0.322 0-0.574 0.099-0.756 0.297-0.182 0.194-0.273 0.471-0.273 0.832v1.559h-0.413zM29.548 13.818v-3.055h0.396v0.832l-0.041-0.145c0.085-0.233 0.229-0.409 0.431-0.529 0.202-0.124 0.452-0.186 0.751-0.186v0.401c-0.016 0-0.031 0-0.047 0-0.016-0.004-0.031-0.006-0.047-0.006-0.322 0-0.574 0.099-0.756 0.297-0.182 0.194-0.273 0.471-0.273 0.832v1.559h-0.413zM32.173 14.976c-0.144 0-0.281-0.023-0.413-0.070-0.128-0.047-0.239-0.116-0.332-0.209l0.192-0.308c0.078 0.074 0.161 0.13 0.25 0.169 0.093 0.043 0.196 0.064 0.308 0.064 0.136 0 0.252-0.039 0.349-0.116 0.101-0.074 0.196-0.206 0.285-0.396l0.198-0.448 0.047-0.064 1.257-2.833h0.407l-1.53 3.421c-0.085 0.198-0.18 0.355-0.285 0.471-0.101 0.116-0.211 0.198-0.332 0.244-0.12 0.050-0.254 0.076-0.401 0.076zM32.988 13.905l-1.408-3.142h0.431l1.245 2.804-0.268 0.337zM35.036 14.668l0.256-1.076 0.047 0.25c-0.089 0-0.165-0.029-0.227-0.087-0.058-0.058-0.087-0.134-0.087-0.227s0.029-0.169 0.087-0.227c0.062-0.058 0.136-0.087 0.221-0.087 0.089 0 0.161 0.031 0.215 0.093 0.058 0.062 0.087 0.136 0.087 0.221 0 0.031-0.002 0.062-0.006 0.093s-0.012 0.066-0.023 0.105-0.027 0.085-0.047 0.14l-0.244 0.803h-0.279zM39.371 13.847c-0.287 0-0.508-0.078-0.663-0.233s-0.233-0.374-0.233-0.657v-2.868h0.413v2.845c0 0.178 0.045 0.316 0.134 0.413 0.093 0.097 0.225 0.145 0.396 0.145 0.183 0 0.334-0.052 0.454-0.157l0.145 0.297c-0.081 0.074-0.18 0.128-0.297 0.163-0.112 0.035-0.229 0.052-0.349 0.052zM37.928 11.107v-0.343h1.891v0.343h-1.891zM42.51 10.735c0.248 0 0.465 0.048 0.652 0.145 0.19 0.093 0.337 0.237 0.442 0.431 0.109 0.194 0.163 0.438 0.163 0.733v1.775h-0.413v-1.734c0-0.322-0.081-0.564-0.244-0.727-0.159-0.167-0.384-0.25-0.675-0.25-0.217 0-0.407 0.045-0.57 0.134-0.159 0.085-0.283 0.211-0.372 0.378-0.085 0.163-0.128 0.361-0.128 0.593v1.606h-0.413v-4.317h0.413v2.1l-0.081-0.157c0.097-0.221 0.252-0.394 0.465-0.518 0.213-0.128 0.468-0.192 0.762-0.192zM46.362 13.847c-0.318 0-0.597-0.066-0.838-0.198-0.241-0.136-0.429-0.32-0.564-0.553-0.136-0.237-0.204-0.506-0.204-0.809s0.064-0.57 0.192-0.803c0.132-0.233 0.31-0.415 0.535-0.547 0.229-0.136 0.485-0.204 0.768-0.204 0.287 0 0.541 0.066 0.762 0.198 0.225 0.128 0.401 0.31 0.529 0.547 0.128 0.233 0.192 0.502 0.192 0.809 0 0.019-0.002 0.041-0.006 0.064 0 0.019 0 0.041 0 0.064h-2.659v-0.308h2.438l-0.163 0.122c0-0.221-0.049-0.417-0.145-0.588-0.093-0.175-0.221-0.31-0.384-0.407s-0.351-0.145-0.564-0.145c-0.209 0-0.398 0.048-0.564 0.145s-0.297 0.233-0.39 0.407-0.14 0.374-0.14 0.599v0.064c0 0.233 0.050 0.438 0.151 0.617 0.105 0.175 0.248 0.312 0.431 0.413 0.186 0.097 0.397 0.145 0.634 0.145 0.186 0 0.359-0.033 0.518-0.099 0.163-0.066 0.303-0.167 0.419-0.303l0.233 0.268c-0.136 0.163-0.307 0.287-0.512 0.372-0.202 0.085-0.425 0.128-0.669 0.128zM48.758 13.818v-3.055h0.396v0.832l-0.041-0.145c0.085-0.233 0.229-0.409 0.431-0.529 0.202-0.124 0.452-0.186 0.751-0.186v0.401c-0.016 0-0.031 0-0.047 0-0.016-0.004-0.031-0.006-0.047-0.006-0.322 0-0.574 0.099-0.756 0.297-0.182 0.194-0.273 0.471-0.273 0.832v1.559h-0.413zM52.499 13.847c-0.318 0-0.597-0.066-0.838-0.198-0.241-0.136-0.429-0.32-0.564-0.553-0.136-0.237-0.204-0.506-0.204-0.809s0.064-0.57 0.192-0.803c0.132-0.233 0.31-0.415 0.535-0.547 0.229-0.136 0.485-0.204 0.768-0.204 0.287 0 0.541 0.066 0.762 0.198 0.225 0.128 0.401 0.31 0.529 0.547 0.128 0.233 0.192 0.502 0.192 0.809 0 0.019-0.002 0.041-0.006 0.064 0 0.019 0 0.041 0 0.064h-2.659v-0.308h2.438l-0.163 0.122c0-0.221-0.049-0.417-0.145-0.588-0.093-0.175-0.221-0.31-0.384-0.407s-0.351-0.145-0.564-0.145c-0.209 0-0.398 0.048-0.564 0.145s-0.297 0.233-0.39 0.407-0.14 0.374-0.14 0.599v0.064c0 0.233 0.050 0.438 0.151 0.617 0.105 0.175 0.248 0.312 0.431 0.413 0.186 0.097 0.397 0.145 0.634 0.145 0.186 0 0.359-0.033 0.518-0.099 0.163-0.066 0.303-0.167 0.419-0.303l0.233 0.268c-0.136 0.163-0.307 0.287-0.512 0.372-0.202 0.085-0.425 0.128-0.669 0.128zM58.513 13.818v-0.675l-0.017-0.111v-1.129c0-0.26-0.074-0.46-0.221-0.599-0.144-0.14-0.359-0.209-0.646-0.209-0.198 0-0.386 0.033-0.564 0.099s-0.33 0.153-0.454 0.262l-0.186-0.308c0.155-0.132 0.341-0.233 0.559-0.303 0.217-0.074 0.446-0.111 0.687-0.111 0.396 0 0.7 0.099 0.913 0.297 0.217 0.194 0.326 0.491 0.326 0.89v1.897h-0.396zM57.46 13.847c-0.229 0-0.429-0.037-0.599-0.111-0.167-0.078-0.295-0.182-0.384-0.314-0.089-0.136-0.134-0.291-0.134-0.465 0-0.159 0.037-0.303 0.111-0.431 0.077-0.132 0.201-0.237 0.372-0.314 0.175-0.081 0.407-0.122 0.698-0.122h1.053v0.308h-1.041c-0.295 0-0.5 0.052-0.617 0.157-0.113 0.105-0.169 0.235-0.169 0.39 0 0.175 0.068 0.314 0.204 0.419s0.326 0.157 0.57 0.157c0.233 0 0.432-0.052 0.599-0.157 0.171-0.109 0.295-0.264 0.372-0.465l0.093 0.285c-0.078 0.202-0.213 0.363-0.407 0.483-0.19 0.12-0.431 0.18-0.721 0.18zM60.212 13.818v-3.055h0.396v0.832l-0.041-0.145c0.085-0.233 0.229-0.409 0.431-0.529 0.202-0.124 0.452-0.186 0.751-0.186v0.401c-0.016 0-0.031 0-0.047 0-0.016-0.004-0.031-0.006-0.047-0.006-0.322 0-0.574 0.099-0.756 0.297-0.182 0.194-0.273 0.471-0.273 0.832v1.559h-0.413zM63.953 13.847c-0.318 0-0.597-0.066-0.838-0.198-0.241-0.136-0.429-0.32-0.564-0.553-0.136-0.237-0.204-0.506-0.204-0.809s0.064-0.57 0.192-0.803c0.132-0.233 0.31-0.415 0.535-0.547 0.229-0.136 0.485-0.204 0.768-0.204 0.287 0 0.541 0.066 0.762 0.198 0.225 0.128 0.401 0.31 0.529 0.547 0.128 0.233 0.192 0.502 0.192 0.809 0 0.019-0.002 0.041-0.006 0.064 0 0.019 0 0.041 0 0.064h-2.659v-0.308h2.438l-0.163 0.122c0-0.221-0.049-0.417-0.145-0.588-0.093-0.175-0.221-0.31-0.384-0.407s-0.351-0.145-0.564-0.145c-0.209 0-0.398 0.048-0.564 0.145s-0.297 0.233-0.39 0.407-0.14 0.374-0.14 0.599v0.064c0 0.233 0.050 0.438 0.151 0.617 0.105 0.175 0.248 0.312 0.431 0.413 0.186 0.097 0.397 0.145 0.634 0.145 0.186 0 0.359-0.033 0.518-0.099 0.163-0.066 0.303-0.167 0.419-0.303l0.233 0.268c-0.136 0.163-0.307 0.287-0.512 0.372-0.202 0.085-0.425 0.128-0.669 0.128zM69.613 10.735c0.248 0 0.465 0.048 0.652 0.145 0.19 0.093 0.337 0.237 0.442 0.431 0.108 0.194 0.163 0.438 0.163 0.733v1.775h-0.413v-1.734c0-0.322-0.081-0.564-0.244-0.727-0.159-0.167-0.384-0.25-0.675-0.25-0.217 0-0.407 0.045-0.57 0.134-0.159 0.085-0.283 0.211-0.372 0.378-0.085 0.163-0.128 0.361-0.128 0.593v1.606h-0.413v-3.055h0.396v0.838l-0.064-0.157c0.097-0.221 0.252-0.394 0.465-0.518 0.213-0.128 0.467-0.192 0.762-0.192zM73.412 13.847c-0.295 0-0.56-0.066-0.797-0.198-0.233-0.136-0.417-0.32-0.553-0.553-0.136-0.237-0.204-0.506-0.204-0.809 0-0.306 0.068-0.576 0.204-0.809s0.32-0.415 0.553-0.547c0.233-0.132 0.499-0.198 0.797-0.198 0.303 0 0.57 0.066 0.803 0.198 0.237 0.132 0.421 0.314 0.553 0.547 0.136 0.233 0.204 0.502 0.204 0.809 0 0.303-0.068 0.572-0.204 0.809-0.132 0.233-0.316 0.417-0.553 0.553-0.237 0.132-0.504 0.198-0.803 0.198zM73.412 13.481c0.221 0 0.417-0.048 0.588-0.145 0.171-0.101 0.304-0.24 0.401-0.419 0.101-0.182 0.151-0.392 0.151-0.628 0-0.24-0.051-0.45-0.151-0.628-0.097-0.178-0.231-0.316-0.401-0.413-0.171-0.101-0.365-0.151-0.582-0.151s-0.411 0.050-0.582 0.151c-0.171 0.097-0.307 0.235-0.407 0.413s-0.151 0.388-0.151 0.628c0 0.237 0.051 0.446 0.151 0.628 0.101 0.178 0.237 0.318 0.407 0.419 0.171 0.097 0.363 0.145 0.576 0.145zM77.701 13.818v-3.055h0.413v3.055h-0.413zM77.911 10.089c-0.085 0-0.157-0.029-0.215-0.087s-0.087-0.128-0.087-0.209c0-0.081 0.029-0.149 0.087-0.204 0.058-0.058 0.13-0.087 0.215-0.087s0.157 0.027 0.215 0.081 0.087 0.122 0.087 0.204c0 0.085-0.029 0.157-0.087 0.215-0.055 0.058-0.126 0.087-0.215 0.087zM83.262 10.735c0.248 0 0.463 0.048 0.646 0.145 0.186 0.093 0.329 0.237 0.431 0.431 0.105 0.194 0.157 0.438 0.157 0.733v1.775h-0.413v-1.734c0-0.322-0.078-0.564-0.233-0.727-0.151-0.167-0.367-0.25-0.646-0.25-0.209 0-0.392 0.045-0.547 0.134-0.151 0.085-0.27 0.211-0.355 0.378-0.081 0.163-0.122 0.361-0.122 0.593v1.606h-0.413v-1.734c0-0.322-0.078-0.564-0.233-0.727-0.155-0.167-0.372-0.25-0.652-0.25-0.206 0-0.386 0.045-0.541 0.134-0.155 0.085-0.276 0.211-0.361 0.378-0.081 0.163-0.122 0.361-0.122 0.593v1.606h-0.413v-3.055h0.396v0.826l-0.064-0.145c0.093-0.221 0.242-0.394 0.448-0.518 0.209-0.128 0.456-0.192 0.739-0.192 0.299 0 0.553 0.076 0.762 0.227 0.209 0.147 0.345 0.37 0.407 0.669l-0.163-0.064c0.089-0.248 0.246-0.448 0.471-0.599 0.229-0.155 0.502-0.233 0.82-0.233zM87.712 13.818v-0.675l-0.017-0.111v-1.129c0-0.26-0.073-0.46-0.221-0.599-0.143-0.14-0.359-0.209-0.646-0.209-0.198 0-0.386 0.033-0.564 0.099s-0.329 0.153-0.454 0.262l-0.186-0.308c0.155-0.132 0.341-0.233 0.559-0.303 0.217-0.074 0.446-0.111 0.687-0.111 0.396 0 0.7 0.099 0.913 0.297 0.217 0.194 0.326 0.491 0.326 0.89v1.897h-0.396zM86.659 13.847c-0.229 0-0.428-0.037-0.599-0.111-0.167-0.078-0.295-0.182-0.384-0.314-0.089-0.136-0.134-0.291-0.134-0.465 0-0.159 0.037-0.303 0.111-0.431 0.078-0.132 0.202-0.237 0.372-0.314 0.175-0.081 0.407-0.122 0.698-0.122h1.053v0.308h-1.041c-0.295 0-0.5 0.052-0.617 0.157-0.112 0.105-0.169 0.235-0.169 0.39 0 0.175 0.068 0.314 0.204 0.419s0.326 0.157 0.57 0.157c0.233 0 0.433-0.052 0.599-0.157 0.171-0.109 0.295-0.264 0.372-0.465l0.093 0.285c-0.077 0.202-0.213 0.363-0.407 0.483-0.19 0.12-0.431 0.18-0.721 0.18zM90.715 14.976c-0.279 0-0.547-0.041-0.803-0.122s-0.464-0.198-0.623-0.349l0.209-0.314c0.144 0.128 0.32 0.229 0.529 0.303 0.213 0.078 0.438 0.116 0.675 0.116 0.388 0 0.673-0.091 0.855-0.273 0.182-0.178 0.273-0.458 0.273-0.838v-0.762l0.058-0.524-0.041-0.524v-0.925h0.396v2.682c0 0.528-0.13 0.913-0.39 1.158-0.256 0.248-0.636 0.372-1.14 0.372zM90.639 13.702c-0.291 0-0.553-0.062-0.785-0.186-0.233-0.128-0.417-0.304-0.553-0.529-0.132-0.225-0.198-0.483-0.198-0.774s0.066-0.547 0.198-0.768c0.136-0.225 0.32-0.4 0.553-0.524s0.495-0.186 0.785-0.186c0.272 0 0.516 0.056 0.733 0.169s0.39 0.279 0.518 0.5c0.128 0.221 0.192 0.491 0.192 0.809s-0.064 0.588-0.192 0.809c-0.128 0.221-0.301 0.39-0.518 0.506s-0.461 0.175-0.733 0.175zM90.68 13.335c0.225 0 0.425-0.047 0.599-0.14 0.175-0.097 0.312-0.229 0.413-0.396 0.101-0.171 0.151-0.367 0.151-0.588s-0.051-0.415-0.151-0.582c-0.101-0.167-0.239-0.297-0.413-0.39-0.175-0.097-0.374-0.145-0.599-0.145-0.221 0-0.421 0.048-0.599 0.145-0.175 0.093-0.312 0.223-0.413 0.39-0.097 0.167-0.145 0.361-0.145 0.582s0.048 0.417 0.145 0.588c0.101 0.167 0.239 0.299 0.413 0.396 0.179 0.093 0.378 0.14 0.599 0.14zM94.873 13.847c-0.318 0-0.597-0.066-0.838-0.198-0.24-0.136-0.429-0.32-0.564-0.553-0.136-0.237-0.204-0.506-0.204-0.809s0.064-0.57 0.192-0.803c0.132-0.233 0.31-0.415 0.535-0.547 0.229-0.136 0.485-0.204 0.768-0.204 0.287 0 0.541 0.066 0.762 0.198 0.225 0.128 0.401 0.31 0.529 0.547 0.128 0.233 0.192 0.502 0.192 0.809 0 0.019-0.002 0.041-0.006 0.064 0 0.019 0 0.041 0 0.064h-2.659v-0.308h2.438l-0.163 0.122c0-0.221-0.048-0.417-0.145-0.588-0.093-0.175-0.221-0.31-0.384-0.407s-0.351-0.145-0.564-0.145c-0.209 0-0.397 0.048-0.564 0.145s-0.297 0.233-0.39 0.407c-0.093 0.175-0.14 0.374-0.14 0.599v0.064c0 0.233 0.051 0.438 0.151 0.617 0.105 0.175 0.248 0.312 0.431 0.413 0.186 0.097 0.397 0.145 0.634 0.145 0.186 0 0.359-0.033 0.518-0.099 0.163-0.066 0.303-0.167 0.419-0.303l0.233 0.268c-0.136 0.163-0.307 0.287-0.512 0.372-0.202 0.085-0.425 0.128-0.669 0.128zM98.089 13.847c-0.252 0-0.491-0.035-0.716-0.105-0.225-0.074-0.401-0.165-0.529-0.273l0.186-0.326c0.124 0.093 0.283 0.175 0.477 0.244 0.194 0.066 0.398 0.099 0.611 0.099 0.291 0 0.5-0.045 0.628-0.134 0.128-0.093 0.192-0.215 0.192-0.367 0-0.112-0.037-0.2-0.111-0.262-0.070-0.066-0.163-0.114-0.279-0.145-0.116-0.035-0.246-0.064-0.39-0.087s-0.287-0.050-0.431-0.081c-0.14-0.031-0.268-0.076-0.384-0.134-0.116-0.062-0.211-0.145-0.285-0.25-0.070-0.105-0.105-0.244-0.105-0.419 0-0.167 0.047-0.316 0.14-0.448s0.229-0.235 0.407-0.308c0.183-0.078 0.404-0.116 0.663-0.116 0.198 0 0.396 0.027 0.593 0.081 0.198 0.050 0.361 0.118 0.489 0.204l-0.18 0.332c-0.136-0.093-0.281-0.159-0.436-0.198-0.155-0.043-0.31-0.064-0.465-0.064-0.275 0-0.479 0.048-0.611 0.145-0.128 0.093-0.192 0.213-0.192 0.361 0 0.116 0.035 0.208 0.105 0.273 0.074 0.066 0.169 0.118 0.285 0.157 0.12 0.035 0.25 0.064 0.39 0.087 0.144 0.023 0.285 0.052 0.425 0.087 0.144 0.031 0.273 0.076 0.39 0.134 0.12 0.054 0.215 0.134 0.285 0.239 0.074 0.101 0.111 0.235 0.111 0.401 0 0.178-0.050 0.334-0.151 0.465-0.097 0.128-0.24 0.229-0.431 0.303-0.186 0.070-0.413 0.105-0.681 0.105zM105.813 10.735c0.248 0 0.464 0.048 0.646 0.145 0.186 0.093 0.33 0.237 0.431 0.431 0.105 0.194 0.157 0.438 0.157 0.733v1.775h-0.413v-1.734c0-0.322-0.077-0.564-0.233-0.727-0.151-0.167-0.367-0.25-0.646-0.25-0.209 0-0.392 0.045-0.547 0.134-0.151 0.085-0.269 0.211-0.355 0.378-0.081 0.163-0.122 0.361-0.122 0.593v1.606h-0.413v-1.734c0-0.322-0.077-0.564-0.233-0.727-0.155-0.167-0.372-0.25-0.652-0.25-0.205 0-0.386 0.045-0.541 0.134-0.155 0.085-0.275 0.211-0.361 0.378-0.081 0.163-0.122 0.361-0.122 0.593v1.606h-0.413v-3.055h0.396v0.826l-0.064-0.145c0.093-0.221 0.243-0.394 0.448-0.518 0.209-0.128 0.456-0.192 0.739-0.192 0.299 0 0.553 0.076 0.762 0.227 0.209 0.147 0.345 0.37 0.407 0.669l-0.163-0.064c0.089-0.248 0.247-0.448 0.471-0.599 0.229-0.155 0.503-0.233 0.82-0.233zM110.263 13.818v-0.675l-0.017-0.111v-1.129c0-0.26-0.074-0.46-0.221-0.599-0.144-0.14-0.359-0.209-0.646-0.209-0.198 0-0.386 0.033-0.564 0.099s-0.33 0.153-0.454 0.262l-0.186-0.308c0.155-0.132 0.341-0.233 0.559-0.303 0.217-0.074 0.446-0.111 0.687-0.111 0.396 0 0.7 0.099 0.913 0.297 0.217 0.194 0.326 0.491 0.326 0.89v1.897h-0.396zM109.21 13.847c-0.229 0-0.429-0.037-0.599-0.111-0.167-0.078-0.295-0.182-0.384-0.314-0.089-0.136-0.134-0.291-0.134-0.465 0-0.159 0.037-0.303 0.111-0.431 0.077-0.132 0.202-0.237 0.372-0.314 0.175-0.081 0.407-0.122 0.698-0.122h1.053v0.308h-1.041c-0.295 0-0.5 0.052-0.617 0.157-0.112 0.105-0.169 0.235-0.169 0.39 0 0.175 0.068 0.314 0.204 0.419s0.326 0.157 0.57 0.157c0.233 0 0.432-0.052 0.599-0.157 0.171-0.109 0.295-0.264 0.372-0.465l0.093 0.285c-0.077 0.202-0.213 0.363-0.407 0.483-0.19 0.12-0.431 0.18-0.721 0.18zM112.928 13.847c-0.287 0-0.508-0.078-0.663-0.233s-0.233-0.374-0.233-0.657v-2.868h0.413v2.845c0 0.178 0.044 0.316 0.134 0.413 0.093 0.097 0.225 0.145 0.396 0.145 0.182 0 0.333-0.052 0.454-0.157l0.145 0.297c-0.081 0.074-0.18 0.128-0.297 0.163-0.113 0.035-0.229 0.052-0.349 0.052zM111.485 11.107v-0.343h1.891v0.343h-1.891zM115.668 13.847c-0.303 0-0.574-0.066-0.815-0.198-0.237-0.136-0.423-0.32-0.559-0.553-0.136-0.237-0.204-0.506-0.204-0.809 0-0.306 0.068-0.576 0.204-0.809s0.322-0.415 0.559-0.547c0.24-0.132 0.512-0.198 0.815-0.198 0.26 0 0.495 0.050 0.704 0.151s0.374 0.252 0.495 0.454l-0.308 0.209c-0.105-0.155-0.235-0.27-0.39-0.343s-0.324-0.111-0.506-0.111c-0.217 0-0.413 0.050-0.588 0.151-0.175 0.097-0.312 0.235-0.413 0.413s-0.151 0.388-0.151 0.628 0.050 0.45 0.151 0.628c0.101 0.178 0.239 0.318 0.413 0.419 0.175 0.097 0.37 0.145 0.588 0.145 0.182 0 0.351-0.037 0.506-0.111s0.285-0.186 0.39-0.337l0.308 0.209c-0.12 0.198-0.285 0.349-0.495 0.454-0.209 0.101-0.444 0.151-0.704 0.151zM119.374 10.735c0.248 0 0.465 0.048 0.652 0.145 0.19 0.093 0.337 0.237 0.442 0.431 0.109 0.194 0.163 0.438 0.163 0.733v1.775h-0.413v-1.734c0-0.322-0.081-0.564-0.244-0.727-0.159-0.167-0.384-0.25-0.675-0.25-0.217 0-0.407 0.045-0.57 0.134-0.159 0.085-0.283 0.211-0.372 0.378-0.085 0.163-0.128 0.361-0.128 0.593v1.606h-0.413v-4.317h0.413v2.1l-0.081-0.157c0.097-0.221 0.252-0.394 0.465-0.518 0.213-0.128 0.468-0.192 0.762-0.192zM121.928 13.818v-3.055h0.413v3.055h-0.413zM122.138 10.089c-0.085 0-0.157-0.029-0.215-0.087s-0.087-0.128-0.087-0.209c0-0.081 0.029-0.149 0.087-0.204 0.058-0.058 0.13-0.087 0.215-0.087s0.157 0.027 0.215 0.081 0.087 0.122 0.087 0.204c0 0.085-0.029 0.157-0.087 0.215-0.055 0.058-0.126 0.087-0.215 0.087zM125.232 10.735c0.248 0 0.465 0.048 0.652 0.145 0.19 0.093 0.337 0.237 0.442 0.431 0.108 0.194 0.163 0.438 0.163 0.733v1.775h-0.413v-1.734c0-0.322-0.081-0.564-0.244-0.727-0.159-0.167-0.384-0.25-0.675-0.25-0.217 0-0.407 0.045-0.57 0.134-0.159 0.085-0.283 0.211-0.372 0.378-0.085 0.163-0.128 0.361-0.128 0.593v1.606h-0.413v-3.055h0.396v0.838l-0.064-0.157c0.097-0.221 0.252-0.394 0.465-0.518 0.213-0.128 0.467-0.192 0.762-0.192zM129.089 14.976c-0.279 0-0.547-0.041-0.803-0.122s-0.464-0.198-0.623-0.349l0.209-0.314c0.144 0.128 0.32 0.229 0.529 0.303 0.213 0.078 0.438 0.116 0.675 0.116 0.388 0 0.673-0.091 0.855-0.273 0.182-0.178 0.273-0.458 0.273-0.838v-0.762l0.058-0.524-0.041-0.524v-0.925h0.396v2.682c0 0.528-0.13 0.913-0.39 1.158-0.256 0.248-0.636 0.372-1.14 0.372zM129.014 13.702c-0.291 0-0.553-0.062-0.785-0.186-0.233-0.128-0.417-0.304-0.553-0.529-0.132-0.225-0.198-0.483-0.198-0.774s0.066-0.547 0.198-0.768c0.136-0.225 0.32-0.4 0.553-0.524s0.495-0.186 0.785-0.186c0.272 0 0.516 0.056 0.733 0.169s0.39 0.279 0.518 0.5c0.128 0.221 0.192 0.491 0.192 0.809s-0.064 0.588-0.192 0.809c-0.128 0.221-0.301 0.39-0.518 0.506s-0.461 0.175-0.733 0.175zM129.055 13.335c0.225 0 0.425-0.047 0.599-0.14 0.175-0.097 0.312-0.229 0.413-0.396 0.101-0.171 0.151-0.367 0.151-0.588s-0.051-0.415-0.151-0.582c-0.101-0.167-0.239-0.297-0.413-0.39-0.175-0.097-0.374-0.145-0.599-0.145-0.221 0-0.421 0.048-0.599 0.145-0.175 0.093-0.312 0.223-0.413 0.39-0.097 0.167-0.145 0.361-0.145 0.582s0.048 0.417 0.145 0.588c0.101 0.167 0.239 0.299 0.413 0.396 0.179 0.093 0.378 0.14 0.599 0.14zM19.508 23.703c-0.144 0-0.281-0.023-0.413-0.070-0.128-0.047-0.239-0.116-0.332-0.209l0.192-0.308c0.078 0.074 0.161 0.13 0.25 0.169 0.093 0.043 0.196 0.064 0.308 0.064 0.136 0 0.252-0.039 0.349-0.116 0.101-0.074 0.196-0.206 0.285-0.396l0.198-0.448 0.047-0.064 1.257-2.833h0.407l-1.53 3.421c-0.085 0.198-0.18 0.355-0.285 0.471-0.101 0.116-0.211 0.198-0.332 0.244-0.12 0.050-0.254 0.076-0.401 0.076zM20.323 22.633l-1.408-3.142h0.431l1.245 2.804-0.268 0.337zM23.98 22.575c-0.295 0-0.56-0.066-0.797-0.198-0.233-0.136-0.417-0.32-0.553-0.553-0.136-0.237-0.204-0.506-0.204-0.809 0-0.306 0.068-0.576 0.204-0.809s0.32-0.415 0.553-0.547c0.233-0.132 0.498-0.198 0.797-0.198 0.303 0 0.57 0.066 0.803 0.198 0.237 0.132 0.421 0.314 0.553 0.547 0.136 0.233 0.204 0.502 0.204 0.809 0 0.303-0.068 0.572-0.204 0.809-0.132 0.233-0.316 0.417-0.553 0.553-0.237 0.132-0.504 0.198-0.803 0.198zM23.98 22.208c0.221 0 0.417-0.048 0.588-0.145 0.171-0.101 0.304-0.24 0.401-0.419 0.101-0.182 0.151-0.392 0.151-0.628 0-0.24-0.050-0.45-0.151-0.628-0.097-0.178-0.231-0.316-0.401-0.413-0.171-0.101-0.365-0.151-0.582-0.151s-0.411 0.050-0.582 0.151c-0.171 0.097-0.306 0.235-0.407 0.413s-0.151 0.388-0.151 0.628c0 0.237 0.050 0.446 0.151 0.628 0.101 0.178 0.237 0.318 0.407 0.419 0.171 0.097 0.363 0.145 0.576 0.145zM27.827 22.575c-0.26 0-0.487-0.048-0.681-0.145s-0.345-0.242-0.454-0.436c-0.105-0.194-0.157-0.436-0.157-0.727v-1.775h0.413v1.728c0 0.326 0.079 0.572 0.239 0.739 0.163 0.163 0.39 0.244 0.681 0.244 0.213 0 0.398-0.043 0.553-0.128 0.159-0.089 0.279-0.217 0.361-0.384 0.085-0.167 0.128-0.367 0.128-0.599v-1.6h0.413v3.055h-0.396v-0.838l0.064 0.151c-0.097 0.225-0.248 0.401-0.454 0.529-0.202 0.124-0.438 0.186-0.71 0.186zM30.656 22.545v-3.055h0.396v0.832l-0.041-0.145c0.085-0.233 0.229-0.409 0.431-0.529 0.202-0.124 0.452-0.186 0.751-0.186v0.401c-0.016 0-0.031 0-0.047 0-0.016-0.004-0.031-0.006-0.047-0.006-0.322 0-0.574 0.099-0.756 0.297-0.182 0.194-0.273 0.471-0.273 0.832v1.559h-0.413zM35.697 22.575c-0.252 0-0.491-0.035-0.716-0.105-0.225-0.074-0.401-0.165-0.529-0.273l0.186-0.326c0.124 0.093 0.283 0.175 0.477 0.244 0.194 0.066 0.398 0.099 0.611 0.099 0.291 0 0.5-0.045 0.628-0.134 0.128-0.093 0.192-0.215 0.192-0.367 0-0.112-0.037-0.2-0.111-0.262-0.070-0.066-0.163-0.114-0.279-0.145-0.116-0.035-0.246-0.064-0.39-0.087s-0.287-0.050-0.431-0.081c-0.14-0.031-0.268-0.076-0.384-0.134-0.116-0.062-0.211-0.145-0.285-0.25-0.070-0.105-0.105-0.244-0.105-0.419 0-0.167 0.047-0.316 0.14-0.448s0.229-0.235 0.407-0.308c0.182-0.078 0.403-0.116 0.663-0.116 0.198 0 0.396 0.027 0.593 0.081 0.198 0.050 0.361 0.118 0.489 0.204l-0.18 0.332c-0.136-0.093-0.281-0.159-0.436-0.198-0.155-0.043-0.31-0.064-0.465-0.064-0.275 0-0.479 0.048-0.611 0.145-0.128 0.093-0.192 0.213-0.192 0.361 0 0.116 0.035 0.208 0.105 0.273 0.074 0.066 0.169 0.118 0.285 0.157 0.12 0.035 0.25 0.064 0.39 0.087 0.144 0.023 0.285 0.052 0.425 0.087 0.144 0.031 0.273 0.076 0.39 0.134 0.12 0.054 0.215 0.134 0.285 0.239 0.074 0.101 0.111 0.235 0.111 0.401 0 0.178-0.051 0.334-0.151 0.465-0.097 0.128-0.24 0.229-0.431 0.303-0.186 0.070-0.413 0.105-0.681 0.105zM39.197 22.575c-0.318 0-0.597-0.066-0.838-0.198-0.241-0.136-0.429-0.32-0.564-0.553-0.136-0.237-0.204-0.506-0.204-0.809s0.064-0.57 0.192-0.803c0.132-0.233 0.31-0.415 0.535-0.547 0.229-0.136 0.485-0.204 0.768-0.204 0.287 0 0.541 0.066 0.762 0.198 0.225 0.128 0.401 0.31 0.529 0.547 0.128 0.233 0.192 0.502 0.192 0.809 0 0.019-0.002 0.041-0.006 0.064 0 0.019 0 0.041 0 0.064h-2.659v-0.308h2.438l-0.163 0.122c0-0.221-0.049-0.417-0.145-0.588-0.093-0.175-0.221-0.31-0.384-0.407s-0.351-0.145-0.564-0.145c-0.209 0-0.398 0.048-0.564 0.145s-0.297 0.233-0.39 0.407-0.14 0.374-0.14 0.599v0.064c0 0.233 0.050 0.438 0.151 0.617 0.105 0.175 0.248 0.312 0.431 0.413 0.186 0.097 0.397 0.145 0.634 0.145 0.186 0 0.359-0.033 0.518-0.099 0.163-0.066 0.303-0.167 0.419-0.303l0.233 0.268c-0.136 0.163-0.307 0.287-0.512 0.372-0.202 0.085-0.425 0.128-0.669 0.128zM43.422 22.545v-0.675l-0.017-0.111v-1.129c0-0.26-0.074-0.46-0.221-0.599-0.144-0.14-0.359-0.209-0.646-0.209-0.198 0-0.386 0.033-0.564 0.099s-0.33 0.153-0.454 0.262l-0.186-0.308c0.155-0.132 0.341-0.233 0.559-0.303 0.217-0.074 0.446-0.111 0.687-0.111 0.396 0 0.7 0.099 0.913 0.297 0.217 0.194 0.326 0.491 0.326 0.89v1.897h-0.396zM42.369 22.575c-0.229 0-0.429-0.037-0.599-0.111-0.167-0.078-0.295-0.182-0.384-0.314-0.089-0.136-0.134-0.291-0.134-0.465 0-0.159 0.037-0.303 0.111-0.431 0.077-0.132 0.201-0.237 0.372-0.314 0.175-0.081 0.407-0.122 0.698-0.122h1.053v0.308h-1.041c-0.295 0-0.5 0.052-0.617 0.157-0.113 0.105-0.169 0.235-0.169 0.39 0 0.175 0.068 0.314 0.204 0.419s0.326 0.157 0.57 0.157c0.233 0 0.432-0.052 0.599-0.157 0.171-0.109 0.295-0.264 0.372-0.465l0.093 0.285c-0.078 0.202-0.213 0.363-0.407 0.483-0.19 0.12-0.431 0.18-0.721 0.18zM45.121 22.545v-3.055h0.396v0.832l-0.041-0.145c0.085-0.233 0.229-0.409 0.431-0.529 0.202-0.124 0.452-0.186 0.751-0.186v0.401c-0.016 0-0.031 0-0.047 0-0.016-0.004-0.031-0.006-0.047-0.006-0.322 0-0.574 0.099-0.756 0.297-0.182 0.194-0.273 0.471-0.273 0.832v1.559h-0.413zM48.833 22.575c-0.303 0-0.574-0.066-0.815-0.198-0.237-0.136-0.423-0.32-0.559-0.553-0.136-0.237-0.204-0.506-0.204-0.809 0-0.306 0.068-0.576 0.204-0.809s0.322-0.415 0.559-0.547c0.24-0.132 0.512-0.198 0.815-0.198 0.26 0 0.495 0.050 0.704 0.151s0.374 0.252 0.495 0.454l-0.308 0.209c-0.105-0.155-0.235-0.27-0.39-0.343s-0.324-0.111-0.506-0.111c-0.217 0-0.413 0.050-0.588 0.151-0.175 0.097-0.312 0.235-0.413 0.413s-0.151 0.388-0.151 0.628 0.050 0.45 0.151 0.628c0.101 0.178 0.239 0.318 0.413 0.419 0.175 0.097 0.37 0.145 0.588 0.145 0.182 0 0.351-0.037 0.506-0.111s0.285-0.186 0.39-0.337l0.308 0.209c-0.12 0.198-0.285 0.349-0.495 0.454-0.209 0.101-0.444 0.151-0.704 0.151zM52.539 19.462c0.248 0 0.465 0.048 0.652 0.145 0.19 0.093 0.337 0.237 0.442 0.431 0.109 0.194 0.163 0.438 0.163 0.733v1.775h-0.413v-1.734c0-0.322-0.081-0.564-0.244-0.727-0.159-0.167-0.384-0.25-0.675-0.25-0.217 0-0.407 0.045-0.57 0.134-0.159 0.085-0.283 0.211-0.372 0.378-0.085 0.163-0.128 0.361-0.128 0.593v1.606h-0.413v-4.317h0.413v2.1l-0.081-0.157c0.097-0.221 0.252-0.394 0.465-0.518 0.213-0.128 0.468-0.192 0.762-0.192zM58.013 22.575c-0.291 0-0.553-0.066-0.785-0.198-0.229-0.132-0.409-0.314-0.541-0.547s-0.198-0.504-0.198-0.815c0-0.306 0.066-0.576 0.198-0.809 0.132-0.237 0.312-0.419 0.541-0.547 0.233-0.132 0.495-0.198 0.785-0.198 0.272 0 0.512 0.060 0.721 0.18 0.213 0.12 0.382 0.297 0.506 0.529 0.124 0.229 0.186 0.51 0.186 0.844s-0.064 0.617-0.192 0.849c-0.124 0.229-0.293 0.405-0.506 0.529-0.209 0.12-0.448 0.18-0.716 0.18zM58.043 22.208c0.217 0 0.411-0.048 0.582-0.145 0.175-0.101 0.311-0.24 0.407-0.419 0.101-0.182 0.151-0.392 0.151-0.628s-0.050-0.444-0.151-0.623c-0.097-0.178-0.233-0.318-0.407-0.419-0.171-0.101-0.364-0.151-0.582-0.151-0.213 0-0.405 0.050-0.576 0.151s-0.306 0.24-0.407 0.419c-0.101 0.178-0.151 0.386-0.151 0.623s0.051 0.446 0.151 0.628c0.101 0.178 0.237 0.318 0.407 0.419 0.171 0.097 0.363 0.145 0.576 0.145zM59.177 23.674v-2.036l0.058-0.617-0.041-0.611v-0.919h0.396v4.183h-0.413zM62.185 22.575c-0.26 0-0.487-0.048-0.681-0.145s-0.345-0.242-0.454-0.436c-0.105-0.194-0.157-0.436-0.157-0.727v-1.775h0.413v1.728c0 0.326 0.080 0.572 0.239 0.739 0.163 0.163 0.39 0.244 0.681 0.244 0.213 0 0.397-0.043 0.553-0.128 0.159-0.089 0.279-0.217 0.361-0.384 0.085-0.167 0.128-0.367 0.128-0.599v-1.6h0.413v3.055h-0.396v-0.838l0.064 0.151c-0.097 0.225-0.248 0.401-0.454 0.529-0.202 0.124-0.438 0.186-0.71 0.186zM66.311 22.575c-0.318 0-0.597-0.066-0.838-0.198-0.24-0.136-0.429-0.32-0.564-0.553-0.136-0.237-0.204-0.506-0.204-0.809s0.064-0.57 0.192-0.803c0.132-0.233 0.31-0.415 0.535-0.547 0.229-0.136 0.485-0.204 0.768-0.204 0.287 0 0.541 0.066 0.762 0.198 0.225 0.128 0.401 0.31 0.529 0.547 0.128 0.233 0.192 0.502 0.192 0.809 0 0.019-0.002 0.041-0.006 0.064 0 0.019 0 0.041 0 0.064h-2.659v-0.308h2.438l-0.163 0.122c0-0.221-0.048-0.417-0.145-0.588-0.093-0.175-0.221-0.31-0.384-0.407s-0.351-0.145-0.564-0.145c-0.209 0-0.397 0.048-0.564 0.145s-0.297 0.233-0.39 0.407c-0.093 0.175-0.14 0.374-0.14 0.599v0.064c0 0.233 0.051 0.438 0.151 0.617 0.105 0.175 0.248 0.312 0.431 0.413 0.186 0.097 0.397 0.145 0.634 0.145 0.186 0 0.359-0.033 0.518-0.099 0.163-0.066 0.303-0.167 0.419-0.303l0.233 0.268c-0.136 0.163-0.307 0.287-0.512 0.372-0.202 0.085-0.425 0.128-0.669 0.128zM68.707 22.545v-3.055h0.396v0.832l-0.041-0.145c0.085-0.233 0.229-0.409 0.431-0.529 0.202-0.124 0.452-0.186 0.751-0.186v0.401c-0.015 0-0.031 0-0.047 0-0.015-0.004-0.031-0.006-0.047-0.006-0.322 0-0.574 0.099-0.756 0.297-0.182 0.194-0.273 0.471-0.273 0.832v1.559h-0.413zM71.332 23.703c-0.144 0-0.281-0.023-0.413-0.070-0.128-0.047-0.239-0.116-0.332-0.209l0.192-0.308c0.077 0.074 0.161 0.13 0.25 0.169 0.093 0.043 0.196 0.064 0.308 0.064 0.136 0 0.252-0.039 0.349-0.116 0.101-0.074 0.196-0.206 0.285-0.396l0.198-0.448 0.047-0.064 1.257-2.833h0.407l-1.53 3.421c-0.085 0.198-0.18 0.355-0.285 0.471-0.101 0.116-0.212 0.198-0.332 0.244-0.12 0.050-0.254 0.076-0.401 0.076zM72.147 22.633l-1.408-3.142h0.431l1.245 2.804-0.268 0.337zM74.486 22.575c-0.085 0-0.159-0.031-0.221-0.093-0.058-0.062-0.087-0.138-0.087-0.227 0-0.093 0.029-0.169 0.087-0.227 0.062-0.058 0.136-0.087 0.221-0.087s0.157 0.029 0.215 0.087c0.062 0.058 0.093 0.134 0.093 0.227 0 0.089-0.031 0.165-0.093 0.227-0.058 0.062-0.13 0.093-0.215 0.093zM77.652 22.545v-4.073h1.524c0.345 0 0.642 0.056 0.89 0.169 0.248 0.109 0.438 0.268 0.57 0.477 0.136 0.206 0.204 0.456 0.204 0.751 0 0.287-0.068 0.535-0.204 0.745-0.132 0.206-0.322 0.365-0.57 0.477s-0.545 0.169-0.89 0.169h-1.286l0.192-0.204v1.489h-0.431zM78.083 21.091l-0.192-0.209h1.274c0.407 0 0.716-0.087 0.925-0.262 0.213-0.178 0.32-0.429 0.32-0.751 0-0.326-0.107-0.578-0.32-0.756-0.209-0.178-0.518-0.268-0.925-0.268h-1.274l0.192-0.204v2.449zM81.923 22.545v-4.317h0.413v4.317h-0.413zM84.964 22.575c-0.318 0-0.597-0.066-0.838-0.198-0.24-0.136-0.429-0.32-0.564-0.553-0.136-0.237-0.204-0.506-0.204-0.809s0.064-0.57 0.192-0.803c0.132-0.233 0.31-0.415 0.535-0.547 0.229-0.136 0.485-0.204 0.768-0.204 0.287 0 0.541 0.066 0.762 0.198 0.225 0.128 0.401 0.31 0.529 0.547 0.128 0.233 0.192 0.502 0.192 0.809 0 0.019-0.002 0.041-0.006 0.064 0 0.019 0 0.041 0 0.064h-2.659v-0.308h2.438l-0.163 0.122c0-0.221-0.048-0.417-0.145-0.588-0.093-0.175-0.221-0.31-0.384-0.407s-0.351-0.145-0.564-0.145c-0.209 0-0.397 0.048-0.564 0.145s-0.297 0.233-0.39 0.407c-0.093 0.175-0.14 0.374-0.14 0.599v0.064c0 0.233 0.051 0.438 0.151 0.617 0.105 0.175 0.248 0.312 0.431 0.413 0.186 0.097 0.397 0.145 0.634 0.145 0.186 0 0.359-0.033 0.518-0.099 0.163-0.066 0.303-0.167 0.419-0.303l0.233 0.268c-0.136 0.163-0.307 0.287-0.512 0.372-0.202 0.085-0.425 0.128-0.669 0.128zM89.189 22.545v-0.675l-0.017-0.111v-1.129c0-0.26-0.074-0.46-0.221-0.599-0.144-0.14-0.359-0.209-0.646-0.209-0.198 0-0.386 0.033-0.564 0.099s-0.33 0.153-0.454 0.262l-0.186-0.308c0.155-0.132 0.341-0.233 0.559-0.303 0.217-0.074 0.446-0.111 0.687-0.111 0.396 0 0.7 0.099 0.913 0.297 0.217 0.194 0.326 0.491 0.326 0.89v1.897h-0.396zM88.136 22.575c-0.229 0-0.429-0.037-0.599-0.111-0.167-0.078-0.295-0.182-0.384-0.314-0.089-0.136-0.134-0.291-0.134-0.465 0-0.159 0.037-0.303 0.111-0.431 0.077-0.132 0.202-0.237 0.372-0.314 0.175-0.081 0.407-0.122 0.698-0.122h1.053v0.308h-1.041c-0.295 0-0.5 0.052-0.617 0.157-0.112 0.105-0.169 0.235-0.169 0.39 0 0.175 0.068 0.314 0.204 0.419s0.326 0.157 0.57 0.157c0.233 0 0.432-0.052 0.599-0.157 0.171-0.109 0.295-0.264 0.372-0.465l0.093 0.285c-0.077 0.202-0.213 0.363-0.407 0.483-0.19 0.12-0.431 0.18-0.721 0.18zM91.709 22.575c-0.252 0-0.491-0.035-0.716-0.105-0.225-0.074-0.401-0.165-0.529-0.273l0.186-0.326c0.124 0.093 0.283 0.175 0.477 0.244 0.194 0.066 0.398 0.099 0.611 0.099 0.291 0 0.5-0.045 0.628-0.134 0.128-0.093 0.192-0.215 0.192-0.367 0-0.112-0.037-0.2-0.111-0.262-0.070-0.066-0.163-0.114-0.279-0.145-0.116-0.035-0.246-0.064-0.39-0.087s-0.287-0.050-0.431-0.081c-0.14-0.031-0.268-0.076-0.384-0.134-0.116-0.062-0.211-0.145-0.285-0.25-0.070-0.105-0.105-0.244-0.105-0.419 0-0.167 0.047-0.316 0.14-0.448s0.229-0.235 0.407-0.308c0.183-0.078 0.404-0.116 0.663-0.116 0.198 0 0.396 0.027 0.593 0.081 0.198 0.050 0.361 0.118 0.489 0.204l-0.18 0.332c-0.136-0.093-0.281-0.159-0.436-0.198-0.155-0.043-0.31-0.064-0.465-0.064-0.275 0-0.479 0.048-0.611 0.145-0.128 0.093-0.192 0.213-0.192 0.361 0 0.116 0.035 0.208 0.105 0.273 0.074 0.066 0.169 0.118 0.285 0.157 0.12 0.035 0.25 0.064 0.39 0.087 0.144 0.023 0.285 0.052 0.425 0.087 0.144 0.031 0.273 0.076 0.39 0.134 0.12 0.054 0.215 0.134 0.285 0.239 0.074 0.101 0.111 0.235 0.111 0.401 0 0.178-0.050 0.334-0.151 0.465-0.097 0.128-0.24 0.229-0.431 0.303-0.186 0.070-0.413 0.105-0.681 0.105zM95.209 22.575c-0.318 0-0.597-0.066-0.838-0.198-0.24-0.136-0.429-0.32-0.564-0.553-0.136-0.237-0.204-0.506-0.204-0.809s0.064-0.57 0.192-0.803c0.132-0.233 0.31-0.415 0.535-0.547 0.229-0.136 0.485-0.204 0.768-0.204 0.287 0 0.541 0.066 0.762 0.198 0.225 0.128 0.401 0.31 0.529 0.547 0.128 0.233 0.192 0.502 0.192 0.809 0 0.019-0.002 0.041-0.006 0.064 0 0.019 0 0.041 0 0.064h-2.659v-0.308h2.438l-0.163 0.122c0-0.221-0.048-0.417-0.145-0.588-0.093-0.175-0.221-0.31-0.384-0.407s-0.351-0.145-0.564-0.145c-0.209 0-0.397 0.048-0.564 0.145s-0.297 0.233-0.39 0.407c-0.093 0.175-0.14 0.374-0.14 0.599v0.064c0 0.233 0.051 0.438 0.151 0.617 0.105 0.175 0.248 0.312 0.431 0.413 0.186 0.097 0.397 0.145 0.634 0.145 0.186 0 0.359-0.033 0.518-0.099 0.163-0.066 0.303-0.167 0.419-0.303l0.233 0.268c-0.136 0.163-0.307 0.287-0.512 0.372-0.202 0.085-0.425 0.128-0.669 0.128zM97.354 23.395l0.256-1.076 0.047 0.25c-0.089 0-0.165-0.029-0.227-0.087-0.058-0.058-0.087-0.134-0.087-0.227s0.029-0.169 0.087-0.227c0.062-0.058 0.136-0.087 0.221-0.087 0.089 0 0.161 0.031 0.215 0.093 0.058 0.062 0.087 0.136 0.087 0.221 0 0.031-0.002 0.062-0.006 0.093s-0.012 0.066-0.023 0.105c-0.012 0.039-0.027 0.085-0.047 0.14l-0.244 0.803h-0.279zM101.689 22.575c-0.287 0-0.508-0.078-0.663-0.233s-0.233-0.374-0.233-0.657v-2.868h0.413v2.845c0 0.178 0.045 0.316 0.134 0.413 0.093 0.097 0.225 0.145 0.396 0.145 0.183 0 0.334-0.052 0.454-0.157l0.145 0.297c-0.081 0.074-0.18 0.128-0.297 0.163-0.112 0.035-0.229 0.052-0.349 0.052zM100.247 19.834v-0.343h1.891v0.343h-1.891zM103.269 22.545v-3.055h0.396v0.832l-0.041-0.145c0.085-0.233 0.229-0.409 0.431-0.529 0.202-0.124 0.452-0.186 0.751-0.186v0.401c-0.015 0-0.031 0-0.047 0-0.015-0.004-0.031-0.006-0.047-0.006-0.322 0-0.574 0.099-0.756 0.297-0.182 0.194-0.273 0.471-0.273 0.832v1.559h-0.413zM105.895 23.703c-0.144 0-0.281-0.023-0.413-0.070-0.128-0.047-0.239-0.116-0.332-0.209l0.192-0.308c0.077 0.074 0.161 0.13 0.25 0.169 0.093 0.043 0.196 0.064 0.308 0.064 0.136 0 0.252-0.039 0.349-0.116 0.101-0.074 0.196-0.206 0.285-0.396l0.198-0.448 0.047-0.064 1.257-2.833h0.407l-1.53 3.421c-0.085 0.198-0.18 0.355-0.285 0.471-0.101 0.116-0.212 0.198-0.332 0.244-0.12 0.050-0.254 0.076-0.401 0.076zM106.709 22.633l-1.408-3.142h0.431l1.245 2.804-0.268 0.337zM112.825 22.545v-0.675l-0.017-0.111v-1.129c0-0.26-0.074-0.46-0.221-0.599-0.144-0.14-0.359-0.209-0.646-0.209-0.198 0-0.386 0.033-0.564 0.099s-0.33 0.153-0.454 0.262l-0.186-0.308c0.155-0.132 0.341-0.233 0.559-0.303 0.217-0.074 0.446-0.111 0.687-0.111 0.396 0 0.7 0.099 0.913 0.297 0.217 0.194 0.326 0.491 0.326 0.89v1.897h-0.396zM111.772 22.575c-0.229 0-0.429-0.037-0.599-0.111-0.167-0.078-0.295-0.182-0.384-0.314-0.089-0.136-0.134-0.291-0.134-0.465 0-0.159 0.037-0.303 0.111-0.431 0.077-0.132 0.202-0.237 0.372-0.314 0.175-0.081 0.407-0.122 0.698-0.122h1.053v0.308h-1.041c-0.295 0-0.5 0.052-0.617 0.157-0.112 0.105-0.169 0.235-0.169 0.39 0 0.175 0.068 0.314 0.204 0.419s0.326 0.157 0.57 0.157c0.233 0 0.432-0.052 0.599-0.157 0.171-0.109 0.295-0.264 0.372-0.465l0.093 0.285c-0.077 0.202-0.213 0.363-0.407 0.483-0.19 0.12-0.431 0.18-0.721 0.18zM115.828 23.703c-0.279 0-0.547-0.041-0.803-0.122s-0.463-0.198-0.623-0.349l0.209-0.314c0.144 0.128 0.32 0.229 0.529 0.303 0.213 0.078 0.439 0.116 0.675 0.116 0.388 0 0.673-0.091 0.855-0.273 0.183-0.178 0.273-0.458 0.273-0.838v-0.762l0.058-0.524-0.041-0.524v-0.925h0.396v2.682c0 0.528-0.13 0.913-0.39 1.158-0.256 0.248-0.636 0.372-1.14 0.372zM115.752 22.429c-0.291 0-0.553-0.062-0.785-0.186-0.233-0.128-0.417-0.304-0.553-0.529-0.132-0.225-0.198-0.483-0.198-0.774s0.066-0.547 0.198-0.768c0.136-0.225 0.32-0.4 0.553-0.524s0.495-0.186 0.785-0.186c0.272 0 0.516 0.056 0.733 0.169s0.39 0.279 0.518 0.5 0.192 0.491 0.192 0.809c0 0.318-0.064 0.588-0.192 0.809s-0.3 0.39-0.518 0.506c-0.217 0.116-0.461 0.175-0.733 0.175zM115.793 22.063c0.225 0 0.425-0.047 0.599-0.14 0.175-0.097 0.312-0.229 0.413-0.396 0.101-0.171 0.151-0.367 0.151-0.588s-0.050-0.415-0.151-0.582c-0.101-0.167-0.239-0.297-0.413-0.39-0.175-0.097-0.374-0.145-0.599-0.145-0.221 0-0.421 0.048-0.599 0.145-0.175 0.093-0.312 0.223-0.413 0.39-0.097 0.167-0.145 0.361-0.145 0.582s0.049 0.417 0.145 0.588c0.101 0.167 0.239 0.299 0.413 0.396 0.179 0.093 0.378 0.14 0.599 0.14zM120.604 22.545v-0.675l-0.017-0.111v-1.129c0-0.26-0.074-0.46-0.221-0.599-0.144-0.14-0.359-0.209-0.646-0.209-0.198 0-0.386 0.033-0.564 0.099s-0.33 0.153-0.454 0.262l-0.186-0.308c0.155-0.132 0.341-0.233 0.559-0.303 0.217-0.074 0.446-0.111 0.687-0.111 0.396 0 0.7 0.099 0.913 0.297 0.217 0.194 0.326 0.491 0.326 0.89v1.897h-0.396zM119.551 22.575c-0.229 0-0.429-0.037-0.599-0.111-0.167-0.078-0.295-0.182-0.384-0.314-0.089-0.136-0.134-0.291-0.134-0.465 0-0.159 0.037-0.303 0.111-0.431 0.077-0.132 0.201-0.237 0.372-0.314 0.175-0.081 0.407-0.122 0.698-0.122h1.053v0.308h-1.041c-0.295 0-0.5 0.052-0.617 0.157-0.113 0.105-0.169 0.235-0.169 0.39 0 0.175 0.068 0.314 0.204 0.419s0.326 0.157 0.57 0.157c0.233 0 0.432-0.052 0.599-0.157 0.171-0.109 0.295-0.264 0.372-0.465l0.093 0.285c-0.078 0.202-0.213 0.363-0.407 0.483-0.19 0.12-0.431 0.18-0.721 0.18zM122.303 22.545v-3.055h0.413v3.055h-0.413zM122.513 18.816c-0.085 0-0.157-0.029-0.215-0.087s-0.087-0.128-0.087-0.209c0-0.081 0.029-0.149 0.087-0.204 0.058-0.058 0.13-0.087 0.215-0.087s0.157 0.027 0.215 0.081c0.058 0.054 0.087 0.122 0.087 0.204 0 0.085-0.029 0.157-0.087 0.215-0.054 0.058-0.126 0.087-0.215 0.087zM125.607 19.462c0.248 0 0.465 0.048 0.652 0.145 0.19 0.093 0.337 0.237 0.442 0.431 0.109 0.194 0.163 0.438 0.163 0.733v1.775h-0.413v-1.734c0-0.322-0.081-0.564-0.244-0.727-0.159-0.167-0.384-0.25-0.675-0.25-0.217 0-0.407 0.045-0.57 0.134-0.159 0.085-0.283 0.211-0.372 0.378-0.085 0.163-0.128 0.361-0.128 0.593v1.606h-0.413v-3.055h0.396v0.838l-0.064-0.157c0.097-0.221 0.252-0.394 0.465-0.518 0.213-0.128 0.467-0.192 0.762-0.192zM128.179 21.324l-0.081-2.851h0.489l-0.087 2.851h-0.32zM128.341 22.575c-0.085 0-0.159-0.029-0.221-0.087-0.058-0.062-0.087-0.134-0.087-0.215 0-0.085 0.029-0.155 0.087-0.209 0.062-0.058 0.136-0.087 0.221-0.087 0.089 0 0.161 0.029 0.215 0.087 0.058 0.054 0.087 0.124 0.087 0.209 0 0.081-0.029 0.153-0.087 0.215-0.054 0.058-0.126 0.087-0.215 0.087z"></path>
      <path fill="#fff" style="fill: var(--color4, #fff)" d="M145.508 14.129c-0.017-0.017-0.030-0.037-0.040-0.059s-0.014-0.046-0.014-0.070 0.005-0.048 0.014-0.070c0.009-0.022 0.023-0.042 0.040-0.059s0.037-0.030 0.059-0.039c0.022-0.009 0.046-0.014 0.070-0.014s0.048 0.005 0.069 0.014c0.022 0.009 0.042 0.023 0.059 0.039l1.871 1.872 1.871-1.872c0.017-0.017 0.037-0.030 0.059-0.039s0.046-0.014 0.070-0.014 0.048 0.005 0.069 0.014c0.022 0.009 0.042 0.023 0.059 0.039s0.030 0.037 0.039 0.059c0.009 0.022 0.014 0.046 0.014 0.070s-0.005 0.048-0.014 0.070c-0.009 0.022-0.023 0.042-0.039 0.059l-1.872 1.871 1.872 1.871c0.017 0.017 0.030 0.037 0.039 0.059s0.014 0.046 0.014 0.070-0.005 0.048-0.014 0.070c-0.009 0.022-0.023 0.042-0.039 0.059s-0.037 0.030-0.059 0.039c-0.022 0.009-0.045 0.014-0.069 0.014s-0.048-0.005-0.070-0.014c-0.022-0.009-0.042-0.023-0.059-0.039l-1.871-1.872-1.871 1.872c-0.017 0.017-0.037 0.030-0.059 0.039s-0.045 0.014-0.069 0.014-0.048-0.005-0.070-0.014c-0.022-0.009-0.042-0.023-0.059-0.039s-0.030-0.037-0.040-0.059c-0.009-0.022-0.014-0.046-0.014-0.070s0.005-0.048 0.014-0.070c0.009-0.022 0.023-0.042 0.040-0.059l1.872-1.871-1.872-1.871z"></path>
      <path fill="#b51b1b" style="fill: var(--color5, #b51b1b)" d="M0 0v0zM35.273 32.727h-33.091c-1.205 0-2.182-0.977-2.182-2.182 0 0.402 0.651 0.727 1.455 0.727h33.818v1.455zM0 32v0zM35.273 0v0z"></path>
      </symbol>
  </defs>
</svg>
